<svg height="512pt" viewBox="-55 0 511 512" width="512pt" xmlns="http://www.w3.org/2000/svg"><path d="m10.03125 195.445312-1.695312.945313 1.699218.9375c12.800782 7.09375 27.195313 10.8125 41.828125 10.8125h298.683594c15.277344 0 30.285156-4.054687 43.484375-11.75-13.199219-7.753906-28.226562-11.839844-43.53125-11.839844h-298.589844c-14.660156 0-29.078125 3.75-41.878906 10.894531zm0 0" fill="#d8e0ea"/><path d="m325.042969 184.550781h-250.332031l-12.597657-24.34375h275.53125zm0 0" fill="#fff"/><path d="m337.648438 160.203125-6.300782 12.171875-6.300781 12.175781h-250.335937l-6.300782-12.175781-6.300781-12.171875zm0 0" fill="#d8e0ea"/><path d="m342.265625 243.765625h-284.777344l-5.40625-35.625h295.589844zm0 0" fill="#76ffd9"/><path d="m54.042969 221.054688 3.445312 22.710937h284.777344l3.449219-22.710937zm0 0" fill="#5de0bf"/><path d="m153.179688 116.328125c-.59375-.4375-1.273438-.804687-2.023438-1.085937l-12.089844-4.535157v-13.4375h121.625v13.4375l-12.089844 4.535157c-.753906.28125-1.429687.648437-2.027343 1.085937-5.140625 3.710937-4.292969 12.257813 2.320312 14.453125l88.753907 29.421875h-275.539063l88.753906-29.421875c6.613281-2.195312 7.460938-10.742188 2.316407-14.453125zm0 0" fill="#fff"/><path d="m234.417969 77.910156h-69.164063l-15.679687 19.359375h100.519531zm0 0" fill="#d8e0ea"/><path d="m212.515625 54.292969h-25.363281l-5.75 23.601562h36.863281zm0 0" fill="#fff"/><path d="m260.691406 97.269531v13.4375l-12.089844 4.535157c-.753906.28125-1.429687.648437-2.027343 1.085937h-93.394531c-.59375-.4375-1.273438-.804687-2.023438-1.085937l-12.089844-4.535157v-13.4375zm0 0" fill="#d8e0ea"/><path d="m364.886719 246.839844c-38.394531-6.75-77.308594-10.144532-116.292969-10.144532h-94.820312c-38.984376 0-77.894532 3.390626-116.292969 10.144532l-13.195313 2.316406c27.289063 21.464844 60.996094 33.132812 95.710938 33.132812h162.375c34.714844 0 68.425781-11.667968 95.710937-33.132812zm0 0" fill="#fff"/><path d="m153.773438 256.359375c-35.320313 0-70.578126 2.796875-105.445313 8.339844 22 11.488281 46.570313 17.59375 71.667969 17.59375h162.375c25.101562 0 49.671875-6.105469 71.671875-17.59375-34.871094-5.542969-70.128907-8.339844-105.449219-8.339844zm0 0" fill="#c1c8d2"/><path d="m214.796875 477.457031c1.664063 0 3.316406-1.035156 4.949219-2.9375v-192.226562h-29.699219s6.871094 195.164062 24.75 195.164062zm0 0" fill="#c1c8d2"/><path d="m284.203125 282.289062s-4.035156 21.222657-9.738281 52.402344c-8.558594 46.800782-20.867188 116.003906-28.921875 169.472656h-56.75c-2.726563-51.453124-10.792969-121.878906-16.738281-169.472656-3.886719-31.066406-6.855469-52.402344-6.855469-52.402344h24.847656s.792969 22.589844 2.550781 52.402344c3.394532 57.804688 10.40625 142.765625 22.191406 142.765625 15.152344 0 29.246094-84.960937 37.074219-142.765625 4.042969-29.8125 6.414063-52.402344 6.414063-52.402344zm0 0" fill="#fff"/><path d="m168.75 504.164062h-20.949219c-3.980469-43.417968-11.011719-108.480468-21.785156-169.472656-3.1875-18.046875-6.699219-35.734375-10.554687-52.402344h26.699218s3.574219 21.066407 8.148438 52.402344c6.6875 45.777344 15.507812 113.476563 18.441406 169.472656zm0 0" fill="#fff"/><path d="m142.160156 282.289062s3.574219 21.066407 8.148438 52.402344h-24.292969c-3.1875-18.046875-6.699219-35.734375-10.554687-52.402344zm0 0" fill="#c1c8d2"/><path d="m190.046875 282.289062s.792969 22.589844 2.550781 52.402344h-20.542968c-3.886719-31.066406-6.855469-52.402344-6.855469-52.402344zm0 0" fill="#c1c8d2"/><path d="m284.203125 282.289062s-4.035156 21.222657-9.738281 52.402344h-22.601563c4.042969-29.8125 6.414063-52.402344 6.414063-52.402344zm0 0" fill="#c1c8d2"/><g fill="#ffc843"><path d="m343.390625 320.566406c4.328125 0 7.835937-3.507812 7.835937-7.835937 0-4.332031-3.507812-7.839844-7.835937-7.839844h-18.863281c-4.328125 0-7.835938 3.507813-7.835938 7.839844 0 4.328125 3.507813 7.835937 7.835938 7.835937zm0 0"/><path d="m35.5 444.609375h-18.863281c-4.328125 0-7.835938 3.507813-7.835938 7.835937 0 4.328126 3.507813 7.835938 7.835938 7.835938h18.863281c4.328125 0 7.835938-3.507812 7.835938-7.835938 0-4.328124-3.507813-7.835937-7.835938-7.835937zm0 0"/><path d="m382.078125 390.722656h-40.972656c-4.332031 0-7.835938 3.507813-7.835938 7.835938s3.503907 7.835937 7.835938 7.835937h40.972656c4.332031 0 7.839844-3.507812 7.839844-7.835937s-3.507813-7.835938-7.839844-7.835938zm0 0"/><path d="m344.261719 430.59375h-39.464844c-4.332031 0-7.839844 3.507812-7.839844 7.835938 0 4.328124 3.507813 7.835937 7.839844 7.835937h39.464844c4.328125 0 7.835937-3.507813 7.835937-7.835937 0-4.328126-3.507812-7.835938-7.835937-7.835938zm0 0"/><path d="m86.320312 355.332031h-39.464843c-4.328125 0-7.835938 3.503907-7.835938 7.835938 0 4.328125 3.507813 7.835937 7.835938 7.835937h39.464843c4.332032 0 7.839844-3.507812 7.839844-7.835937 0-4.332031-3.507812-7.835938-7.839844-7.835938zm0 0"/></g><path d="m398 189.632812c-14.390625-8.453124-30.8125-12.917968-47.5-12.917968h-12.574219l6.679688-12.90625c2.164062-4.207032.007812-9.546875-4.496094-11.039063l-88.746094-29.429687c-.195312-.066406-.269531-.089844-.277343-.375-.003907-.285156.070312-.3125.265624-.382813l12.09375-4.539062c3.058594-1.144531 5.082032-4.070313 5.082032-7.335938v-13.4375c0-4.328125-3.507813-7.835937-7.835938-7.835937h-6.859375l-13.328125-16.453125c-1.484375-1.839844-3.722656-2.90625-6.085937-2.90625h-9.992188l-4.296875-17.636719c-.855468-3.511719-4-5.980469-7.613281-5.980469h-4.800781v-38.621093c0-4.328126-3.507813-7.835938-7.835938-7.835938-4.332031 0-7.839844 3.507812-7.839844 7.835938v38.621093h-4.886718c-3.613282 0-6.757813 2.46875-7.613282 5.980469l-4.296874 17.636719h-9.992188c-2.363281 0-4.601562 1.066406-6.089844 2.90625l-13.324218 16.453125h-6.773438c-4.328125 0-7.835938 3.507812-7.835938 7.835937v13.4375c0 3.265625 2.027344 6.191407 5.085938 7.335938l12.09375 4.535156c.195312.074219.269531.101563.261719.386719-.003907.285156-.078125.308594-.277344.375l-88.746094 29.425781c-4.492187 1.488281-6.675781 6.84375-4.492187 11.042969l6.679687 12.902344h-9.925781c-15.957031 0-31.761719 4.113281-45.691406 11.890624l-1.695313.941407c-2.484375 1.386719-4.023437 4.007812-4.019531 6.855469.003906 2.84375 1.546875 5.464843 4.035156 6.84375l1.703125.941406c12.011719 6.65625 25.398438 10.59375 39.070313 11.554687l3.234375 21.324219c-4.148438.652344-8.289063 1.328125-12.417969 2.058594l-13.195312 2.316406c-3.042969.535156-5.492188 2.8125-6.246094 5.808594-.753906 3 .328125 6.160156 2.757812 8.070312 25.679688 20.203125 57.171875 32.230469 89.683594 34.4375 15.511719 69.394532 25.234375 155.683594 30.070312 206.574219h-34.140624c-4.332032 0-7.835938 3.507813-7.835938 7.835937 0 4.328126 3.503906 7.835938 7.835938 7.835938h190.425781c4.328125 0 7.835937-3.507812 7.835937-7.835938 0-4.328124-3.507812-7.835937-7.835937-7.835937h-40.8125c11.800781-76.46875 31.164062-180.316406 36.078125-206.429687 33.390625-1.742188 65.839844-13.863282 92.179687-34.582032 2.429688-1.910156 3.507813-5.070312 2.757813-8.070312-.753906-2.996094-3.203125-5.273438-6.246094-5.808594l-13.195312-2.316406c-4.976563-.878906-9.96875-1.695313-14.96875-2.457032l3.152343-20.777343c15.308594-.632813 30.289063-4.992188 43.550781-12.726563 2.40625-1.402344 3.886719-3.976562 3.890626-6.757812.003906-2.78125-1.46875-5.359375-3.867188-6.769532-14.386719-8.453124 2.398438 1.410157 0 0zm-204.6875-127.503906h13.046875l1.929687 7.925782h-16.910156zm-24.324219 23.617188h61.691407l2.984374 3.6875h-67.660156zm-107.789062 130.230468h20.558593v16.722657c-5.910156.628906-11.8125 1.332031-17.699218 2.117187zm57.753906 0v13.785157c-7.179687.371093-14.351563.855469-21.519531 1.453125v-15.238282zm37.199219 0v12.878907h-2.378906c-6.378907 0-12.761719.101562-19.144532.285156v-13.164063zm37.195312 0v12.878907h-21.523437v-12.878907zm37.195313 0v12.878907h-21.523438v-12.878907zm37.195312 0v13.164063c-6.382812-.183594-12.765625-.285156-19.144531-.285156h-2.375v-12.878907zm37.199219 0v15.238282c-7.167969-.597656-14.34375-1.082032-21.523438-1.453125v-13.785157zm-150 280.351563c-5.550781-58.96875-15.003906-139.238281-29.675781-206.199219h10.242187c4.28125 26.28125 20.070313 126.652344 24.945313 206.199219zm94.59375-206.199219c-1.734375 15.21875-5.71875 48.378906-11.109375 82.25-3.957031 24.855469-7.609375 43.402344-10.839844 57.242188v-139.492188zm-37.664062 159.75c-1.460938-7.800781-2.589844-15.660156-3.59375-23.53125h3.636718v23.761719c-.015625-.078125-.03125-.152344-.042968-.230469-.058594-.304687.011718.078125 0 0zm-9.027344-79.410156h9.070312v12.265625h-8.09375c-.128906-1.539063-.785156-9.746094-.976562-12.265625zm9.070312-15.671875h-10.191406c-.277344-4.089844-.542969-8.179687-.796875-12.269531h10.988281zm-6.699218 43.613281h6.699218v12.265625h-5.460937c-.089844-.828125-.175781-1.652343-.265625-2.5-.027344-.253906-.664063-6.507812-.972656-9.765625zm6.699218-71.554687h-11.910156c-.230469-4.089844-.449219-8.175781-.660156-12.265625h12.570312zm0-27.941407h-13.328125c-.152343-3.378906-.28125-6.332031-.382812-8.785156h13.710937zm-53.542968-8.785156c3.71875 27.523438 17.636718 133.210938 22.128906 206.199219h-4.34375c-4.710938-78.066406-19.914063-176.164063-24.769532-206.199219zm37.832031 206.199219c-4.355469-71.808594-17.878907-175.433594-22.019531-206.199219h8.332031c.09375 2.210938.652343 14.640625.816406 18.011719.714844 14.722656 1.789063 34.359375 3.257813 54.976563.632812 8.789062 1.3125 17.574218 2.074218 26.355468-.050781.359375.550782 6.160156.667969 7.433594 1.945313 21 4.066406 38.246094 6.335937 51.386719 3.160157 18.308593 6.554688 30.59375 12.972657 35.089843 1.792969 1.261719 3.828125 1.910157 6.160156 1.910157.242187 0 .496094-.011719.753906-.027344.105469-.007813.210938-.015625.320313-.023437.023437 0 .046875-.003907.074218-.007813 3.542969-.308594 6.714844-2.070313 9.671876-5.527344.027343-.03125.054687-.058593.082031-.085937.046875-.058594.09375-.121094.140625-.183594 4.644531-5.582031 8.765625-15.382812 12.984375-30.351562 4.636719-16.46875 9.367187-39.332032 14.0625-67.945313 6.175781-37.660156 10.6875-75.703125 12.417969-91.011719h9.453124c-5.792968 30.859375-24.570312 132.03125-35.949218 206.199219zm86.230469-221.875h-24.148438c-.007812 0-.011719 0-.019531 0h-68.195313c-.007812 0-.011718 0-.019531 0h-24.84375c-.003906 0-.011719 0-.019531 0h-23.007813c-.007812 0-.015625 0-.023437 0h-22.214844c-26.539062-.011719-52.726562-7.332031-75.40625-20.871094 36.019531-6.007812 72.738281-9.050781 109.242188-9.050781h94.820312c36.503906 0 73.222656 3.042969 109.246094 9.050781-22.683594 13.542969-48.867188 20.859375-75.410156 20.871094zm38.179687-41.753906v-16.722657h17.949219l-2.808594 18.503907c-5.039062-.652344-10.085938-1.246094-15.140625-1.78125zm29.9375-32.394531h-298.683594c-8.34375 0-16.644531-1.34375-24.539062-3.941407 7.90625-2.621093 16.21875-3.976562 24.585937-3.976562h22.777344c.007812 0 .019531.003906.03125.003906.007812 0 .019531-.003906.03125-.003906h62.695312c4.328126 0 7.835938-3.507813 7.835938-7.835938s-3.507812-7.835937-7.835938-7.835937h-57.964843l-4.488281-8.671875h153.183593c4.328125 0 7.835938-3.507813 7.835938-7.835938s-3.507813-7.835937-7.835938-7.835937h-117.53125l42.679688-14.152344c6.558593-2.175781 10.882812-8.042969 11.015625-14.953125.132812-6.90625-3.960938-12.9375-10.429688-15.363281l-7.007812-2.628906v-.167969h105.957031v.167969l-7.011719 2.628906c-6.46875 2.425781-10.5625 8.457031-10.429687 15.363281.132812 6.90625 4.457031 12.777344 11.015625 14.953125l42.679687 14.152344h-28.890625c-4.332031 0-7.839844 3.507812-7.839844 7.835937s3.507813 7.835938 7.839844 7.835938h64.539063l-4.484375 8.671875h-151.609375c-4.328125 0-7.835938 3.507812-7.835938 7.835937s3.507813 7.835938 7.835938 7.835938h156.335937c.011719 0 .023438.003906.035156.003906.007813 0 .019532-.003906.027344-.003906h25.433594c8.386719 0 16.695312 1.355469 24.597656 3.976562-7.894531 2.597657-16.183594 3.941407-24.550781 3.941407zm0 0" fill="#434c54"/></svg>